<?xml version="1.0" encoding="utf-8"?>
<!-- Generator: Adobe Illustrator 21.1.0, SVG Export Plug-In . SVG Version: 6.00 Build 0)  -->
<svg version="1.1" id="Layer_1" xmlns="http://www.w3.org/2000/svg" xmlns:xlink="http://www.w3.org/1999/xlink" x="0px" y="0px"
	 viewBox="0 0 480 230" style="enable-background:new 0 0 480 230;" xml:space="preserve">
<style type="text/css">
	.st0{fill:#FFFFFF;}
</style>
<g>
	<g>
		<path class="st0" d="M159.9,37.4L153,52c-10.7-6.4-21.3-9.1-28.7-9.1c-9.7,0-16,3.6-16,10.2c0,21.4,53,10,52.8,45.3
			c0,17.5-15.4,28.3-37,28.3c-15.4,0-30-6.3-40.1-15.6l7.1-14.3c10.1,9.2,22.7,14.3,33.2,14.3c11.5,0,18.4-4.3,18.4-11.9
			c0-21.9-53-9.7-53-44.6c0-16.8,14.4-27.3,35.7-27.3C138.3,27.3,150.8,31.4,159.9,37.4z"/>
		<path class="st0" d="M400.3,42.5l-9.7,12.1c-7.1-7.7-17.4-12.5-27.3-12.5c-19.6,0-35,15.1-35,34.5s15.4,34.6,35,34.6
			c9.8,0,19.9-4.5,27.3-11.6l9.8,10.9c-10,9.8-24.1,16.1-38,16.1c-28.7,0-51-21.7-51-49.9c0-27.9,22.6-49.3,51.6-49.3
			C376.9,27.4,390.8,33.2,400.3,42.5z"/>
		<path class="st0" d="M237.2,126.8c-26.2,0-45.2-7.9-56.3-23.5c-19.5-27.3-6.1-67.3-5.5-69l17.2,5.9l-8.6-2.9l8.6,2.9
			c-0.1,0.3-10.9,33,3.2,52.7c7.5,10.5,21.5,15.8,41.5,15.8c19.8,0,33.5-5.2,40.7-15.5c13.4-19.4,1.6-52.4,1.5-52.7l17-6.4
			c0.2,0.4,3.9,10.5,5.4,23.7c2.1,18.3-1,34.1-9,45.7C282,118.9,263.3,126.8,237.2,126.8z"/>
		<g>
			<g>
				<circle class="st0" cx="213.9" cy="37.2" r="9.9"/>
				<circle class="st0" cx="258.8" cy="37.2" r="9.9"/>
			</g>
		</g>
	</g>
	<g>
		<path class="st0" d="M29.2,176.6l-1.3,2.8c-2-1.2-4.1-1.7-5.5-1.7c-1.8,0-3.1,0.7-3.1,2c0,4.1,10.1,1.9,10.1,8.6
			c0,3.3-2.9,5.4-7.1,5.4c-2.9,0-5.7-1.2-7.7-3l1.4-2.7c1.9,1.8,4.3,2.7,6.3,2.7c2.2,0,3.5-0.8,3.5-2.3c0-4.2-10.1-1.8-10.1-8.5
			c0-3.2,2.8-5.2,6.8-5.2C25.1,174.7,27.4,175.5,29.2,176.6z"/>
		<path class="st0" d="M33.4,193.6v-18.7h3.2v18.7H33.4z"/>
		<path class="st0" d="M54.4,176.6l-1.3,2.8c-2-1.2-4.1-1.7-5.5-1.7c-1.8,0-3.1,0.7-3.1,2c0,4.1,10.1,1.9,10.1,8.6
			c0,3.3-2.9,5.4-7.1,5.4c-2.9,0-5.7-1.2-7.7-3l1.4-2.7c1.9,1.8,4.3,2.7,6.3,2.7c2.2,0,3.5-0.8,3.5-2.3c0-4.2-10.1-1.8-10.1-8.5
			c0-3.2,2.8-5.2,6.8-5.2C50.3,174.7,52.7,175.5,54.4,176.6z"/>
		<path class="st0" d="M65.5,177.7v15.9h-3.2v-15.9h-5.9v-2.8h15v2.8H65.5z"/>
		<path class="st0" d="M77.6,177.7v5.1h9.2v2.8h-9.2v5.2h10.5v2.8H74.4v-18.7h13.4v2.8H77.6z"/>
		<path class="st0" d="M109.1,193.6l0-14l-5.9,12h-2.1l-5.9-12v14h-3v-18.7H96l6.2,12.4l6.2-12.4h3.7v18.7H109.1z"/>
		<path class="st0" d="M119.9,189.3l-1.8,4.2h-3.3l8.3-18.7h3.2l8.2,18.7h-3.4l-1.8-4.2H119.9z M124.6,178.2l-3.5,8.3h7.1
			L124.6,178.2z"/>
		<path class="st0" d="M160.4,185.8c0,4.9-3.1,7.9-8.1,7.9c-5.1,0-8.2-3-8.2-7.9v-11h3.2v11c0,3.2,2,5.1,5,5.1c3.1,0,5-1.9,5-5.1
			v-11h3.2V185.8z M153.1,172.8h-2.7l2.8-4l3.2,1.3L153.1,172.8z"/>
		<path class="st0" d="M178.3,193.6l-10-13.4v13.4h-3.2v-18.7h3.1l10,13.5v-13.5h3.1v18.7H178.3z"/>
		<path class="st0" d="M186.6,193.6v-18.7h3.2v18.7H186.6z"/>
		<path class="st0" d="M210.4,177.6l-1.8,2.3c-1.4-1.5-3.3-2.4-5.2-2.4c-3.7,0-6.7,2.9-6.7,6.6s2.9,6.6,6.7,6.6
			c1.9,0,3.8-0.9,5.2-2.2l1.9,2.1c-1.9,1.9-4.6,3.1-7.3,3.1c-5.5,0-9.7-4.1-9.7-9.5c0-5.3,4.3-9.4,9.8-9.4
			C205.9,174.7,208.6,175.8,210.4,177.6z"/>
		<path class="st0" d="M231.8,184.2c0,5.4-4.3,9.5-9.9,9.5s-9.9-4.1-9.9-9.5c0-5.4,4.3-9.4,9.9-9.4S231.8,178.8,231.8,184.2z
			 M215.1,184.2c0,3.7,3.1,6.7,6.7,6.7s6.7-2.9,6.7-6.7c0-3.7-3-6.6-6.7-6.6C218.2,177.6,215.1,180.5,215.1,184.2z"/>
		<path class="st0" d="M250.3,174.8c5.6,0,9.7,3.9,9.7,9.4c0,5.4-4.1,9.4-9.8,9.4h-7.6v-18.7H250.3z M245.8,190.7h4.6
			c3.6,0,6.4-2.7,6.4-6.5c0-3.8-2.9-6.6-6.6-6.6h-4.5V190.7z"/>
		<path class="st0" d="M266.8,177.7v5.1h9.2v2.8h-9.2v5.2h10.5v2.8h-13.7v-18.7H277v2.8H266.8z"/>
		<path class="st0" d="M304,177.6l-1.8,2.3c-1.4-1.5-3.3-2.4-5.2-2.4c-3.7,0-6.7,2.9-6.7,6.6s2.9,6.6,6.7,6.6c1.9,0,3.8-0.9,5.2-2.2
			l1.9,2.1c-1.9,1.9-4.6,3.1-7.3,3.1c-5.5,0-9.7-4.1-9.7-9.5c0-5.3,4.3-9.4,9.8-9.4C299.5,174.7,302.2,175.8,304,177.6z"/>
		<path class="st0" d="M325.4,184.2c0,5.4-4.3,9.5-9.9,9.5c-5.6,0-9.9-4.1-9.9-9.5c0-5.4,4.3-9.4,9.9-9.4
			C321.1,174.7,325.4,178.8,325.4,184.2z M308.8,184.2c0,3.7,3.1,6.7,6.7,6.7s6.7-2.9,6.7-6.7c0-3.7-3-6.6-6.7-6.6
			C311.8,177.6,308.8,180.5,308.8,184.2z"/>
		<path class="st0" d="M346,193.6l0-14l-5.9,12h-2.1l-5.9-12v14h-3v-18.7h3.7l6.2,12.4l6.2-12.4h3.7v18.7H346z"/>
		<path class="st0" d="M357.2,177.7v5.1h9.2v2.8h-9.2v5.2h10.5v2.8h-13.7v-18.7h13.4v2.8H357.2z"/>
		<path class="st0" d="M379.6,174.8c5.6,0,9.7,3.9,9.7,9.4c0,5.4-4.1,9.4-9.8,9.4h-7.6v-18.7H379.6z M375.1,190.7h4.6
			c3.6,0,6.4-2.7,6.4-6.5c0-3.8-2.9-6.6-6.6-6.6h-4.5V190.7z"/>
		<path class="st0" d="M410.5,184.2c0,5.4-4.3,9.5-9.9,9.5c-5.6,0-9.9-4.1-9.9-9.5c0-5.4,4.3-9.4,9.9-9.4
			C406.1,174.7,410.5,178.8,410.5,184.2z M393.8,184.2c0,3.7,3.1,6.7,6.7,6.7s6.7-2.9,6.7-6.7c0-3.7-3-6.6-6.7-6.6
			C396.9,177.6,393.8,180.5,393.8,184.2z"/>
		<path class="st0" d="M422.6,187.9c-0.3,0-0.6,0-0.9,0h-4.4v5.6h-3.2v-18.7h7.6c4.8,0,7.5,2.3,7.5,6.4c0,3-1.4,5.1-3.9,6.1l4.2,6.3
			H426L422.6,187.9z M421.7,185.1c2.9,0,4.5-1.2,4.5-3.8c0-2.5-1.7-3.6-4.5-3.6h-4.4v7.4H421.7z"/>
		<path class="st0" d="M436.9,177.7v5.1h9.2v2.8h-9.2v5.2h10.5v2.8h-13.7v-18.7h13.4v2.8H436.9z"/>
		<path class="st0" d="M464.3,176.6l-1.3,2.8c-2-1.2-4.1-1.7-5.5-1.7c-1.8,0-3.1,0.7-3.1,2c0,4.1,10.1,1.9,10.1,8.6
			c0,3.3-2.9,5.4-7.1,5.4c-2.9,0-5.7-1.2-7.7-3l1.4-2.7c1.9,1.8,4.3,2.7,6.3,2.7c2.2,0,3.5-0.8,3.5-2.3c0-4.2-10.1-1.8-10.1-8.5
			c0-3.2,2.8-5.2,6.8-5.2C460.1,174.7,462.5,175.5,464.3,176.6z"/>
	</g>
</g>
</svg>
